<svg xmlns="http://www.w3.org/2000/svg" viewBox="0 0 448.02 109.49"><defs><style>.cls-1{fill:#112c40;}.cls-2{fill:#a00;}</style></defs><title>logotipo - colorsvg</title><g id="Capa_2" data-name="Capa 2"><g id="Capa_1-2" data-name="Capa 1"><path class="cls-1" d="M115.1,74.11V63.44A1.6,1.6,0,0,1,117.36,62c7.93,3.62,13.91,5.43,18,5.43,1.84,0,2.8-.48,2.8-1.44,0-3.12-8.73-4.16-15.62-6.49-4.8-1.6-8.57-5.21-8.57-10.33,0-8,8-13.38,21.07-13.38a42.28,42.28,0,0,1,16,3,1.58,1.58,0,0,1,1,1.48V50a1.59,1.59,0,0,1-2.29,1.43c-7.14-3.47-12.69-5.18-16.53-5.18-2,0-3.05.56-3.05,1.77-.08,3.76,24.44,2.72,24.28,17.22,0,8.33-8.09,13.46-21.23,13.46a56.79,56.79,0,0,1-17-3.09A1.59,1.59,0,0,1,115.1,74.11Z"/><path class="cls-1" d="M165.09,72.55a19.59,19.59,0,0,1-6.89-15.22A20,20,0,0,1,165.09,42a24,24,0,0,1,16.58-6.17A24.35,24.35,0,0,1,198.5,42a19.81,19.81,0,0,1,6.89,15.38,19.62,19.62,0,0,1-6.89,15.22,24.35,24.35,0,0,1-16.83,6.17A24,24,0,0,1,165.09,72.55Zm16.74-8.33a6.35,6.35,0,0,0,4.73-1.84,7.15,7.15,0,0,0,1.68-5.05,7.34,7.34,0,0,0-1.68-5.13,6.35,6.35,0,0,0-4.73-1.84,6,6,0,0,0-4.64,1.76,7.05,7.05,0,0,0-1.77,5.21,6.8,6.8,0,0,0,1.77,5.05A6,6,0,0,0,181.83,64.22Z"/><path class="cls-1" d="M250.48,41.79C254.16,45.87,256,51,256,57.33s-1.84,11.37-5.52,15.38a18.63,18.63,0,0,1-14.18,6,13.87,13.87,0,0,1-9.94-4.09V91.54a1.6,1.6,0,0,1-1.59,1.6H211.22a1.6,1.6,0,0,1-1.6-1.6V38.18a1.59,1.59,0,0,1,1.6-1.6h13.55a1.59,1.59,0,0,1,1.59,1.6v1.76a13.58,13.58,0,0,1,10-4.16A18.48,18.48,0,0,1,250.48,41.79ZM236.94,62.22a6.82,6.82,0,0,0,1.76-4.89c0-4.17-2.56-7-6.41-7s-6.49,2.88-6.49,7a6.88,6.88,0,0,0,1.84,4.89A6.59,6.59,0,0,0,236.94,62.22Z"/><path class="cls-1" d="M267.14,72.55a19.59,19.59,0,0,1-6.89-15.22A20,20,0,0,1,267.14,42a24,24,0,0,1,16.58-6.17A24.31,24.31,0,0,1,300.54,42a19.78,19.78,0,0,1,6.89,15.38,19.59,19.59,0,0,1-6.89,15.22,24.31,24.31,0,0,1-16.82,6.17A24,24,0,0,1,267.14,72.55Zm16.74-8.33a6.36,6.36,0,0,0,4.73-1.84,7.15,7.15,0,0,0,1.68-5.05,7.34,7.34,0,0,0-1.68-5.13,6.36,6.36,0,0,0-4.73-1.84,6,6,0,0,0-4.65,1.76,7.09,7.09,0,0,0-1.76,5.21,6.83,6.83,0,0,0,1.76,5.05A6,6,0,0,0,283.88,64.22Z"/><path class="cls-1" d="M346.93,38.17V49.63a1.19,1.19,0,0,1-1.42,1.17c-2.84-.53-9.33-1.17-13.57,3.4-2.58,2.8-3,5.61-3,11V76.32a1.6,1.6,0,0,1-1.6,1.6H313.67a1.6,1.6,0,0,1-1.59-1.6V38.18a1.59,1.59,0,0,1,1.59-1.6H327.3a1.59,1.59,0,0,1,1.6,1.6v5c2.32-4.81,6.41-7.21,12.18-7.21a12.73,12.73,0,0,1,5.15,1.06A1.19,1.19,0,0,1,346.93,38.17Z"/><path class="cls-1" d="M361.66,74.55c-3.52-2.72-5.28-6.57-5.28-11.45V50.92H352a1.2,1.2,0,0,1-1.2-1.2V37.78a1.2,1.2,0,0,1,1.2-1.2h4.34V28.32a1.19,1.19,0,0,1,1.2-1.19h14.18a1.19,1.19,0,0,1,1.2,1.19v8.26h10.51a1.2,1.2,0,0,1,1.2,1.2V49.72a1.2,1.2,0,0,1-1.2,1.2H373V59c0,2.86,1.09,4.89,4.25,4.89A15.32,15.32,0,0,0,384.34,62a1.2,1.2,0,0,1,1.76,1.06V75.37a1.6,1.6,0,0,1-1,1.47,27.55,27.55,0,0,1-10.74,1.88A19.5,19.5,0,0,1,361.66,74.55Z"/><path class="cls-1" d="M427.66,42.43c4.08,4.48,5.45,9.86,4.08,17.47H405.19c1.52,3.6,5.48,6.08,11.25,6.08a31,31,0,0,0,12.2-2.65,1.59,1.59,0,0,1,2.22,1.46v9.09A3.23,3.23,0,0,1,428.43,77a52.67,52.67,0,0,1-13.35,1.71c-7.61,0-13.86-2-18.83-5.93a19.08,19.08,0,0,1-7.45-15.7,20.18,20.18,0,0,1,6.49-15.22,21.64,21.64,0,0,1,15.62-6.09C418,35.78,423.57,38,427.66,42.43ZM404.75,52.76h11.77c-.08-3.76-1.84-5.61-5.29-5.61C407.63,47.15,405.47,49,404.75,52.76Z"/><path class="cls-1" d="M431.19,35.69v-1.5a.35.35,0,0,1,.52-.3,6.84,6.84,0,0,0,3.18,1c.63,0,1.05-.18,1.05-.5,0-1.14-4.82-.49-4.82-3.38a2.24,2.24,0,0,1,1.08-2,4.82,4.82,0,0,1,2.73-.71,7,7,0,0,1,2.77.53.34.34,0,0,1,.21.32v1.45a.35.35,0,0,1-.49.32,6.62,6.62,0,0,0-2.75-.67c-.71,0-1.06.16-1.06.49,0,1.11,4.8.44,4.8,3.35a2.31,2.31,0,0,1-1,2,4.58,4.58,0,0,1-2.72.75,6.93,6.93,0,0,1-3.27-.8A.36.36,0,0,1,431.19,35.69Z"/><path class="cls-1" d="M445.7,36.55l-.51-1.29H441.6l-.51,1.29a.19.19,0,0,1-.18.13h-2a.19.19,0,0,1-.18-.27l2.89-7.3a1.12,1.12,0,0,1,1-.71h1.35a1.11,1.11,0,0,1,1,.71l2.91,7.3a.19.19,0,0,1-.18.27h-1.93A.2.2,0,0,1,445.7,36.55Zm-3.35-3.23h2.09l-1-2.81a.08.08,0,0,0-.15,0Z"/><path class="cls-1" d="M115.1,74.11V63.44A1.6,1.6,0,0,1,117.36,62c7.93,3.62,13.91,5.43,18,5.43,1.84,0,2.8-.48,2.8-1.44,0-3.12-8.73-4.16-15.62-6.49-4.8-1.6-8.57-5.21-8.57-10.33,0-8,8-13.38,21.07-13.38a42.28,42.28,0,0,1,16,3,1.58,1.58,0,0,1,1,1.48V50a1.59,1.59,0,0,1-2.29,1.43c-7.14-3.47-12.69-5.18-16.53-5.18-2,0-3.05.56-3.05,1.77-.08,3.76,24.44,2.72,24.28,17.22,0,8.33-8.09,13.46-21.23,13.46a56.79,56.79,0,0,1-17-3.09A1.59,1.59,0,0,1,115.1,74.11Z"/><path class="cls-1" d="M165.09,72.55a19.59,19.59,0,0,1-6.89-15.22A20,20,0,0,1,165.09,42a24,24,0,0,1,16.58-6.17A24.35,24.35,0,0,1,198.5,42a19.81,19.81,0,0,1,6.89,15.38,19.62,19.62,0,0,1-6.89,15.22,24.35,24.35,0,0,1-16.83,6.17A24,24,0,0,1,165.09,72.55Zm16.74-8.33a6.35,6.35,0,0,0,4.73-1.84,7.15,7.15,0,0,0,1.68-5.05,7.34,7.34,0,0,0-1.68-5.13,6.35,6.35,0,0,0-4.73-1.84,6,6,0,0,0-4.64,1.76,7.05,7.05,0,0,0-1.77,5.21,6.8,6.8,0,0,0,1.77,5.05A6,6,0,0,0,181.83,64.22Z"/><path class="cls-1" d="M250.48,41.79C254.16,45.87,256,51,256,57.33s-1.84,11.37-5.52,15.38a18.63,18.63,0,0,1-14.18,6,13.87,13.87,0,0,1-9.94-4.09V91.54a1.6,1.6,0,0,1-1.59,1.6H211.22a1.6,1.6,0,0,1-1.6-1.6V38.18a1.59,1.59,0,0,1,1.6-1.6h13.55a1.59,1.59,0,0,1,1.59,1.6v1.76a13.58,13.58,0,0,1,10-4.16A18.48,18.48,0,0,1,250.48,41.79ZM236.94,62.22a6.82,6.82,0,0,0,1.76-4.89c0-4.17-2.56-7-6.41-7s-6.49,2.88-6.49,7a6.88,6.88,0,0,0,1.84,4.89A6.59,6.59,0,0,0,236.94,62.22Z"/><path class="cls-1" d="M267.14,72.55a19.59,19.59,0,0,1-6.89-15.22A20,20,0,0,1,267.14,42a24,24,0,0,1,16.58-6.17A24.31,24.31,0,0,1,300.54,42a19.78,19.78,0,0,1,6.89,15.38,19.59,19.59,0,0,1-6.89,15.22,24.31,24.31,0,0,1-16.82,6.17A24,24,0,0,1,267.14,72.55Zm16.74-8.33a6.36,6.36,0,0,0,4.73-1.84,7.15,7.15,0,0,0,1.68-5.05,7.34,7.34,0,0,0-1.68-5.13,6.36,6.36,0,0,0-4.73-1.84,6,6,0,0,0-4.65,1.76,7.09,7.09,0,0,0-1.76,5.21,6.83,6.83,0,0,0,1.76,5.05A6,6,0,0,0,283.88,64.22Z"/><path class="cls-1" d="M346.93,38.17V49.63a1.19,1.19,0,0,1-1.42,1.17c-2.84-.53-9.33-1.17-13.57,3.4-2.58,2.8-3,5.61-3,11V76.32a1.6,1.6,0,0,1-1.6,1.6H313.67a1.6,1.6,0,0,1-1.59-1.6V38.18a1.59,1.59,0,0,1,1.59-1.6H327.3a1.59,1.59,0,0,1,1.6,1.6v5c2.32-4.81,6.41-7.21,12.18-7.21a12.73,12.73,0,0,1,5.15,1.06A1.19,1.19,0,0,1,346.93,38.17Z"/><path class="cls-1" d="M361.66,74.55c-3.52-2.72-5.28-6.57-5.28-11.45V50.92H352a1.2,1.2,0,0,1-1.2-1.2V37.78a1.2,1.2,0,0,1,1.2-1.2h4.34V28.32a1.19,1.19,0,0,1,1.2-1.19h14.18a1.19,1.19,0,0,1,1.2,1.19v8.26h10.51a1.2,1.2,0,0,1,1.2,1.2V49.72a1.2,1.2,0,0,1-1.2,1.2H373V59c0,2.86,1.09,4.89,4.25,4.89A15.32,15.32,0,0,0,384.34,62a1.2,1.2,0,0,1,1.76,1.06V75.37a1.6,1.6,0,0,1-1,1.47,27.55,27.55,0,0,1-10.74,1.88A19.5,19.5,0,0,1,361.66,74.55Z"/><path class="cls-1" d="M427.66,42.43c4.08,4.48,5.45,9.86,4.08,17.47H405.19c1.52,3.6,5.48,6.08,11.25,6.08a31,31,0,0,0,12.2-2.65,1.59,1.59,0,0,1,2.22,1.46v9.09A3.23,3.23,0,0,1,428.43,77a52.67,52.67,0,0,1-13.35,1.71c-7.61,0-13.86-2-18.83-5.93a19.08,19.08,0,0,1-7.45-15.7,20.18,20.18,0,0,1,6.49-15.22,21.64,21.64,0,0,1,15.62-6.09C418,35.78,423.57,38,427.66,42.43ZM404.75,52.76h11.77c-.08-3.76-1.84-5.61-5.29-5.61C407.63,47.15,405.47,49,404.75,52.76Z"/><path class="cls-1" d="M431.19,35.69v-1.5a.35.35,0,0,1,.52-.3,6.84,6.84,0,0,0,3.18,1c.63,0,1.05-.18,1.05-.5,0-1.14-4.82-.49-4.82-3.38a2.24,2.24,0,0,1,1.08-2,4.82,4.82,0,0,1,2.73-.71,7,7,0,0,1,2.77.53.34.34,0,0,1,.21.32v1.45a.35.35,0,0,1-.49.32,6.62,6.62,0,0,0-2.75-.67c-.71,0-1.06.16-1.06.49,0,1.11,4.8.44,4.8,3.35a2.31,2.31,0,0,1-1,2,4.58,4.58,0,0,1-2.72.75,6.93,6.93,0,0,1-3.27-.8A.36.36,0,0,1,431.19,35.69Z"/><path class="cls-1" d="M445.7,36.55l-.51-1.29H441.6l-.51,1.29a.19.19,0,0,1-.18.13h-2a.19.19,0,0,1-.18-.27l2.89-7.3a1.12,1.12,0,0,1,1-.71h1.35a1.11,1.11,0,0,1,1,.71l2.91,7.3a.19.19,0,0,1-.18.27h-1.93A.2.2,0,0,1,445.7,36.55Zm-3.35-3.23h2.09l-1-2.81a.08.08,0,0,0-.15,0Z"/><path class="cls-2" d="M83.45,44.72,95.06,33.59l-1.38-2.44A80.27,80.27,0,0,0,82.62,16.7C73.19,6.87,62.69,1.15,52.25.16,38-1.19,24,5.9,10.71,21.22a36.53,36.53,0,0,0-2.88,3.91c-.56.85-1.1,1.65-1.63,2.31-6.89,8.44-7.74,18-2.44,27.61a41.13,41.13,0,0,0,7.64,9.72L9.18,66.9l0,0-9.2,9,1.37,2.41A79.88,79.88,0,0,0,12.43,92.78c9.43,9.83,19.93,15.55,30.37,16.54,1.14.11,2.28.17,3.41.17,13.06,0,25.87-7.13,38.13-21.22a43.31,43.31,0,0,0,3.3-4.46c.46-.68.9-1.32,1.33-1.91,6-8.09,6.52-17.45,1.66-27.08A44.14,44.14,0,0,0,83.45,44.72Zm-32-37.17c17,1.6,29.75,18.51,33.94,24.8l-4.91,4.7L66.26,23.41,50.93,38.1A81.23,81.23,0,0,0,34,26a31.47,31.47,0,0,0-13.83-3.81C30.6,11.49,41.11,6.58,51.46,7.55Zm-5.3,94.51q-1.29,0-2.58-.12c-17-1.6-29.78-18.56-33.95-24.83l5-4.94,14.1,13.51,15.13-14.5C56.1,82.53,65.64,88,73.7,88.51,64.53,97.51,55.29,102.06,46.16,102.06Zm36.7-24.75c-2.57,2.65-5.17,3.85-8.21,3.8C68.54,81,60.2,76,49.39,65.93l0-.05-5.89-5.65q-4.86-4.92-10.31-11L30.49,46.1,16.82,59.46a33.51,33.51,0,0,1-6.31-8.05c-3.68-6.82-3.2-13,1.48-19,4.9-3.79,10.76-3.75,18.4.12,8.54,4.33,19.06,13.55,31.25,27.41L64.36,63,78,50a36.35,36.35,0,0,1,5.78,8.25C87.2,65.19,86.9,71.6,82.86,77.31Z"/></g></g></svg>