<svg xmlns="http://www.w3.org/2000/svg" viewBox="0 0 453.7 109.49"><defs><style>.cls-1{fill:#112c40;}.cls-2{fill:#fff;}</style></defs><title>logotipo - blancosvg</title><g id="Capa_2" data-name="Capa 2"><g id="Capa_1-2" data-name="Capa 1"><path class="cls-1" d="M120.79,74.12V63.45A1.59,1.59,0,0,1,123.05,62c7.92,3.62,13.9,5.43,18,5.43,1.84,0,2.8-.48,2.8-1.45,0-3.12-8.73-4.16-15.62-6.48-4.81-1.61-8.57-5.21-8.57-10.34,0-8,8-13.38,21.07-13.38a42.09,42.09,0,0,1,16,3,1.58,1.58,0,0,1,1,1.47V50a1.6,1.6,0,0,1-2.29,1.44c-7.14-3.48-12.69-5.18-16.54-5.18-2,0-3,.56-3,1.76-.08,3.76,24.43,2.72,24.27,17.22,0,8.34-8.09,13.46-21.23,13.46a56.68,56.68,0,0,1-17-3.08A1.59,1.59,0,0,1,120.79,74.12Z"/><path class="cls-1" d="M170.77,72.55a19.61,19.61,0,0,1-6.89-15.22A20.07,20.07,0,0,1,170.77,42a24,24,0,0,1,16.59-6.17A24.31,24.31,0,0,1,204.18,42a19.8,19.8,0,0,1,6.89,15.38,19.57,19.57,0,0,1-6.89,15.22,24.31,24.31,0,0,1-16.82,6.17A24,24,0,0,1,170.77,72.55Zm16.75-8.33a6.36,6.36,0,0,0,4.73-1.84,7.11,7.11,0,0,0,1.68-5.05,7.31,7.31,0,0,0-1.68-5.12,6.33,6.33,0,0,0-4.73-1.85,6,6,0,0,0-4.65,1.77,7.07,7.07,0,0,0-1.76,5.2,6.8,6.8,0,0,0,1.76,5.05A6,6,0,0,0,187.52,64.22Z"/><path class="cls-1" d="M256.16,41.79c3.69,4.09,5.53,9.21,5.53,15.54s-1.84,11.38-5.53,15.38a18.62,18.62,0,0,1-14.18,6,13.87,13.87,0,0,1-9.93-4.08V91.55a1.6,1.6,0,0,1-1.6,1.59H216.9a1.59,1.59,0,0,1-1.59-1.59V38.18a1.6,1.6,0,0,1,1.59-1.6h13.55a1.6,1.6,0,0,1,1.6,1.6V40a13.53,13.53,0,0,1,10-4.17A18.45,18.45,0,0,1,256.16,41.79ZM242.62,62.22a6.75,6.75,0,0,0,1.77-4.89c0-4.16-2.57-7-6.41-7s-6.49,2.89-6.49,7a6.84,6.84,0,0,0,1.84,4.89A6.58,6.58,0,0,0,242.62,62.22Z"/><path class="cls-1" d="M272.82,72.55a19.61,19.61,0,0,1-6.89-15.22A20.07,20.07,0,0,1,272.82,42a24,24,0,0,1,16.59-6.17A24.34,24.34,0,0,1,306.23,42a19.8,19.8,0,0,1,6.89,15.38,19.57,19.57,0,0,1-6.89,15.22,24.34,24.34,0,0,1-16.82,6.17A24,24,0,0,1,272.82,72.55Zm16.75-8.33a6.33,6.33,0,0,0,4.72-1.84A7.11,7.11,0,0,0,296,57.33a7.31,7.31,0,0,0-1.68-5.12,6.29,6.29,0,0,0-4.72-1.85,6,6,0,0,0-4.65,1.77,7.07,7.07,0,0,0-1.76,5.2,6.8,6.8,0,0,0,1.76,5.05A6,6,0,0,0,289.57,64.22Z"/><path class="cls-1" d="M352.61,38.17V49.63a1.19,1.19,0,0,1-1.41,1.18c-2.85-.54-9.33-1.18-13.57,3.4-2.59,2.79-3,5.61-3,11V76.32a1.6,1.6,0,0,1-1.6,1.6H319.36a1.6,1.6,0,0,1-1.6-1.6V38.18a1.6,1.6,0,0,1,1.6-1.6H333a1.6,1.6,0,0,1,1.6,1.6v5C336.91,38.43,341,36,346.76,36a12.65,12.65,0,0,1,5.16,1.07A1.18,1.18,0,0,1,352.61,38.17Z"/><path class="cls-1" d="M367.35,74.56c-3.52-2.73-5.29-6.57-5.29-11.46V50.92h-4.33a1.19,1.19,0,0,1-1.2-1.19V37.78a1.2,1.2,0,0,1,1.2-1.2h4.33V28.33a1.2,1.2,0,0,1,1.2-1.2h14.19a1.2,1.2,0,0,1,1.2,1.2v8.25h10.5a1.2,1.2,0,0,1,1.2,1.2V49.73a1.19,1.19,0,0,1-1.2,1.19h-10.5V59c0,2.87,1.09,4.89,4.24,4.89A15.37,15.37,0,0,0,390,62.05a1.2,1.2,0,0,1,1.77,1.05V75.38a1.59,1.59,0,0,1-1,1.46,27.31,27.31,0,0,1-10.73,1.88A19.53,19.53,0,0,1,367.35,74.56Z"/><path class="cls-1" d="M433.34,42.43c4.09,4.49,5.45,9.86,4.09,17.47H410.87c1.53,3.61,5.49,6.08,11.26,6.08a30.83,30.83,0,0,0,12.2-2.65,1.59,1.59,0,0,1,2.22,1.47v9.09A3.25,3.25,0,0,1,434.12,77a53.12,53.12,0,0,1-13.35,1.7c-7.61,0-13.86-2-18.83-5.93a19,19,0,0,1-7.45-15.7A20.16,20.16,0,0,1,401,41.87a21.61,21.61,0,0,1,15.62-6.09C423.73,35.78,429.26,38,433.34,42.43ZM410.43,52.77h11.78c-.08-3.77-1.84-5.61-5.29-5.61C413.32,47.16,411.15,49,410.43,52.77Z"/><path class="cls-1" d="M436.88,35.69V34.2a.35.35,0,0,1,.51-.31,6.91,6.91,0,0,0,3.19,1c.63,0,1-.18,1-.5,0-1.13-4.81-.48-4.81-3.38a2.22,2.22,0,0,1,1.08-2,4.9,4.9,0,0,1,2.73-.71,7,7,0,0,1,2.77.53.36.36,0,0,1,.21.32v1.45a.35.35,0,0,1-.5.32,6.74,6.74,0,0,0-2.74-.67c-.71,0-1.07.17-1.07.5,0,1.11,4.8.43,4.8,3.34a2.31,2.31,0,0,1-1,2,4.65,4.65,0,0,1-2.72.74,6.89,6.89,0,0,1-3.26-.8A.34.34,0,0,1,436.88,35.69Z"/><path class="cls-1" d="M451.38,36.56l-.5-1.29h-3.6l-.5,1.29a.21.21,0,0,1-.19.12h-1.94a.2.2,0,0,1-.19-.27l2.9-7.3a1.12,1.12,0,0,1,1-.7h1.35a1.12,1.12,0,0,1,1,.7l2.91,7.3a.2.2,0,0,1-.19.27h-1.93A.21.21,0,0,1,451.38,36.56ZM448,33.33h2.08l-1-2.82a.07.07,0,0,0-.14,0Z"/><path class="cls-2" d="M120.79,74.12V63.45A1.59,1.59,0,0,1,123.05,62c7.92,3.62,13.9,5.43,18,5.43,1.84,0,2.8-.48,2.8-1.45,0-3.12-8.73-4.16-15.62-6.48-4.81-1.61-8.57-5.21-8.57-10.34,0-8,8-13.38,21.07-13.38a42.09,42.09,0,0,1,16,3,1.58,1.58,0,0,1,1,1.47V50a1.6,1.6,0,0,1-2.29,1.44c-7.14-3.48-12.69-5.18-16.54-5.18-2,0-3,.56-3,1.76-.08,3.76,24.43,2.72,24.27,17.22,0,8.34-8.09,13.46-21.23,13.46a56.68,56.68,0,0,1-17-3.08A1.59,1.59,0,0,1,120.79,74.12Z"/><path class="cls-2" d="M170.77,72.55a19.61,19.61,0,0,1-6.89-15.22A20.07,20.07,0,0,1,170.77,42a24,24,0,0,1,16.59-6.17A24.31,24.31,0,0,1,204.18,42a19.8,19.8,0,0,1,6.89,15.38,19.57,19.57,0,0,1-6.89,15.22,24.31,24.31,0,0,1-16.82,6.17A24,24,0,0,1,170.77,72.55Zm16.75-8.33a6.36,6.36,0,0,0,4.73-1.84,7.11,7.11,0,0,0,1.68-5.05,7.31,7.31,0,0,0-1.68-5.12,6.33,6.33,0,0,0-4.73-1.85,6,6,0,0,0-4.65,1.77,7.07,7.07,0,0,0-1.76,5.2,6.8,6.8,0,0,0,1.76,5.05A6,6,0,0,0,187.52,64.22Z"/><path class="cls-2" d="M256.16,41.79c3.69,4.09,5.53,9.21,5.53,15.54s-1.84,11.38-5.53,15.38a18.62,18.62,0,0,1-14.18,6,13.87,13.87,0,0,1-9.93-4.08V91.55a1.6,1.6,0,0,1-1.6,1.59H216.9a1.59,1.59,0,0,1-1.59-1.59V38.18a1.6,1.6,0,0,1,1.59-1.6h13.55a1.6,1.6,0,0,1,1.6,1.6V40a13.53,13.53,0,0,1,10-4.17A18.45,18.45,0,0,1,256.16,41.79ZM242.62,62.22a6.75,6.75,0,0,0,1.77-4.89c0-4.16-2.57-7-6.41-7s-6.49,2.89-6.49,7a6.84,6.84,0,0,0,1.84,4.89A6.58,6.58,0,0,0,242.62,62.22Z"/><path class="cls-2" d="M272.82,72.55a19.61,19.61,0,0,1-6.89-15.22A20.07,20.07,0,0,1,272.82,42a24,24,0,0,1,16.59-6.17A24.34,24.34,0,0,1,306.23,42a19.8,19.8,0,0,1,6.89,15.38,19.57,19.57,0,0,1-6.89,15.22,24.34,24.34,0,0,1-16.82,6.17A24,24,0,0,1,272.82,72.55Zm16.75-8.33a6.33,6.33,0,0,0,4.72-1.84A7.11,7.11,0,0,0,296,57.33a7.31,7.31,0,0,0-1.68-5.12,6.29,6.29,0,0,0-4.72-1.85,6,6,0,0,0-4.65,1.77,7.07,7.07,0,0,0-1.76,5.2,6.8,6.8,0,0,0,1.76,5.05A6,6,0,0,0,289.57,64.22Z"/><path class="cls-2" d="M352.61,38.17V49.63a1.19,1.19,0,0,1-1.41,1.18c-2.85-.54-9.33-1.18-13.57,3.4-2.59,2.79-3,5.61-3,11V76.32a1.6,1.6,0,0,1-1.6,1.6H319.36a1.6,1.6,0,0,1-1.6-1.6V38.18a1.6,1.6,0,0,1,1.6-1.6H333a1.6,1.6,0,0,1,1.6,1.6v5C336.91,38.43,341,36,346.76,36a12.65,12.65,0,0,1,5.16,1.07A1.18,1.18,0,0,1,352.61,38.17Z"/><path class="cls-2" d="M367.35,74.56c-3.52-2.73-5.29-6.57-5.29-11.46V50.92h-4.33a1.19,1.19,0,0,1-1.2-1.19V37.78a1.2,1.2,0,0,1,1.2-1.2h4.33V28.33a1.2,1.2,0,0,1,1.2-1.2h14.19a1.2,1.2,0,0,1,1.2,1.2v8.25h10.5a1.2,1.2,0,0,1,1.2,1.2V49.73a1.19,1.19,0,0,1-1.2,1.19h-10.5V59c0,2.87,1.09,4.89,4.24,4.89A15.37,15.37,0,0,0,390,62.05a1.2,1.2,0,0,1,1.77,1.05V75.38a1.59,1.59,0,0,1-1,1.46,27.31,27.31,0,0,1-10.73,1.88A19.53,19.53,0,0,1,367.35,74.56Z"/><path class="cls-2" d="M433.34,42.43c4.09,4.49,5.45,9.86,4.09,17.47H410.87c1.53,3.61,5.49,6.08,11.26,6.08a30.83,30.83,0,0,0,12.2-2.65,1.59,1.59,0,0,1,2.22,1.47v9.09A3.25,3.25,0,0,1,434.12,77a53.12,53.12,0,0,1-13.35,1.7c-7.61,0-13.86-2-18.83-5.93a19,19,0,0,1-7.45-15.7A20.16,20.16,0,0,1,401,41.87a21.61,21.61,0,0,1,15.62-6.09C423.73,35.78,429.26,38,433.34,42.43ZM410.43,52.77h11.78c-.08-3.77-1.84-5.61-5.29-5.61C413.32,47.16,411.15,49,410.43,52.77Z"/><path class="cls-2" d="M436.88,35.69V34.2a.35.35,0,0,1,.51-.31,6.91,6.91,0,0,0,3.19,1c.63,0,1-.18,1-.5,0-1.13-4.81-.48-4.81-3.38a2.22,2.22,0,0,1,1.08-2,4.9,4.9,0,0,1,2.73-.71,7,7,0,0,1,2.77.53.36.36,0,0,1,.21.32v1.45a.35.35,0,0,1-.5.32,6.74,6.74,0,0,0-2.74-.67c-.71,0-1.07.17-1.07.5,0,1.11,4.8.43,4.8,3.34a2.31,2.31,0,0,1-1,2,4.65,4.65,0,0,1-2.72.74,6.89,6.89,0,0,1-3.26-.8A.34.34,0,0,1,436.88,35.69Z"/><path class="cls-2" d="M451.38,36.56l-.5-1.29h-3.6l-.5,1.29a.21.21,0,0,1-.19.12h-1.94a.2.2,0,0,1-.19-.27l2.9-7.3a1.12,1.12,0,0,1,1-.7h1.35a1.12,1.12,0,0,1,1,.7l2.91,7.3a.2.2,0,0,1-.19.27h-1.93A.21.21,0,0,1,451.38,36.56ZM448,33.33h2.08l-1-2.82a.07.07,0,0,0-.14,0Z"/><path class="cls-2" d="M83.45,44.72,95.06,33.59l-1.38-2.44A80.27,80.27,0,0,0,82.62,16.7C73.19,6.87,62.69,1.15,52.25.16,38-1.19,24,5.9,10.71,21.22a36.53,36.53,0,0,0-2.88,3.91c-.56.85-1.1,1.65-1.63,2.31-6.89,8.44-7.74,18-2.44,27.61a41.13,41.13,0,0,0,7.64,9.72L9.18,66.9l0,0-9.2,9,1.37,2.41A79.88,79.88,0,0,0,12.43,92.78c9.43,9.83,19.93,15.55,30.37,16.54,1.14.11,2.28.17,3.41.17,13.06,0,25.87-7.13,38.13-21.22a43.31,43.31,0,0,0,3.3-4.46c.46-.68.9-1.32,1.33-1.91,6-8.09,6.52-17.45,1.66-27.08A44.14,44.14,0,0,0,83.45,44.72Zm-32-37.17c17,1.6,29.75,18.51,33.94,24.8l-4.91,4.7L66.26,23.41,50.93,38.1A81.23,81.23,0,0,0,34,26a31.47,31.47,0,0,0-13.83-3.81C30.6,11.49,41.11,6.58,51.46,7.55Zm-5.3,94.51q-1.29,0-2.58-.12c-17-1.6-29.78-18.56-33.95-24.83l5-4.94,14.1,13.51,15.13-14.5C56.1,82.53,65.64,88,73.7,88.51,64.53,97.51,55.29,102.06,46.16,102.06Zm36.7-24.75c-2.57,2.65-5.17,3.85-8.21,3.8C68.54,81,60.2,76,49.39,65.93l0-.05-5.89-5.65q-4.86-4.92-10.31-11L30.49,46.1,16.82,59.46a33.51,33.51,0,0,1-6.31-8.05c-3.68-6.82-3.2-13,1.48-19,4.9-3.79,10.76-3.75,18.4.12,8.54,4.33,19.06,13.55,31.25,27.41L64.36,63,78,50a36.35,36.35,0,0,1,5.78,8.25C87.2,65.19,86.9,71.6,82.86,77.31Z"/></g></g></svg>