<?xml version="1.0" standalone="no"?>
<!DOCTYPE svg PUBLIC "-//W3C//DTD SVG 20010904//EN"
 "http://www.w3.org/TR/2001/REC-SVG-20010904/DTD/svg10.dtd">
<svg version="1.0" xmlns="http://www.w3.org/2000/svg"
 width="1663.000000pt" height="1663.000000pt" viewBox="0 0 1663.000000 1663.000000"
 preserveAspectRatio="xMidYMid meet">
<metadata>
Created by potrace 1.14, written by Peter Selinger 2001-2017
</metadata>
<g transform="translate(0.000000,1663.000000) scale(0.100000,-0.100000)"
fill="#000000" stroke="none">
<path d="M8307 16624 c-1 -1 -56 -5 -122 -8 -66 -4 -133 -9 -150 -11 -16 -2
-59 -6 -95 -9 -68 -6 -109 -11 -175 -21 -43 -7 -64 -10 -133 -20 -49 -7 -185
-31 -222 -40 -14 -3 -47 -10 -74 -15 -40 -8 -206 -50 -431 -110 -70 -18 -311
-101 -450 -155 -308 -118 -669 -290 -954 -454 -69 -39 -128 -71 -133 -71 -4 0
-8 -4 -8 -10 0 -5 -4 -10 -10 -10 -14 0 -287 -174 -458 -292 -210 -145 -539
-395 -702 -534 -169 -144 -263 -225 -300 -260 -25 -24 -56 -52 -70 -64 -59
-50 -253 -236 -389 -371 -211 -210 -346 -352 -544 -571 -129 -144 -232 -263
-283 -331 -27 -34 -51 -64 -54 -67 -13 -12 -139 -193 -275 -395 -119 -176
-243 -346 -403 -550 -37 -47 -153 -222 -211 -317 -112 -185 -235 -436 -301
-613 -12 -33 -28 -76 -35 -95 -44 -111 -114 -384 -140 -545 -9 -55 -18 -111
-20 -125 -28 -160 -27 -636 0 -830 3 -19 7 -55 10 -80 3 -25 7 -56 10 -70 3
-14 7 -36 10 -50 3 -14 9 -47 15 -75 6 -27 12 -60 15 -72 2 -13 18 -76 35
-140 168 -630 524 -1285 1020 -1878 143 -172 203 -238 375 -412 l160 -162
-385 -380 c-212 -208 -435 -428 -496 -487 -280 -272 -799 -781 -820 -803 -27
-28 -27 -27 48 -154 32 -54 58 -100 58 -102 0 -14 212 -362 328 -540 105 -159
356 -517 415 -590 4 -5 49 -64 99 -130 97 -128 265 -340 309 -390 15 -16 80
-93 145 -170 65 -77 139 -162 164 -190 26 -27 67 -72 91 -99 246 -276 642
-662 949 -927 188 -162 325 -273 480 -388 69 -51 132 -98 140 -105 14 -10 84
-59 277 -193 35 -24 67 -43 72 -43 5 0 11 -4 13 -8 2 -4 57 -41 123 -82 66
-40 136 -83 155 -95 40 -26 231 -134 275 -157 179 -90 395 -198 398 -198 3 0
43 -18 89 -39 255 -120 692 -272 1008 -351 183 -45 195 -48 310 -70 147 -27
156 -29 240 -41 41 -5 86 -12 100 -14 14 -3 53 -7 87 -10 34 -3 72 -8 84 -10
138 -27 885 -27 1069 0 14 2 56 6 93 10 37 3 76 8 86 10 10 2 42 6 72 10 30 4
56 8 59 10 3 1 32 6 65 10 32 3 62 8 65 10 3 2 25 6 50 10 25 4 47 8 50 10 3
2 22 6 43 9 236 37 799 211 1102 341 522 222 1006 494 1485 833 213 152 506
379 675 523 39 34 207 181 221 194 6 5 48 44 94 85 378 340 948 937 1222 1280
100 125 203 270 373 520 76 113 168 246 204 295 421 583 657 1167 726 1795 4
30 9 66 12 80 8 43 11 522 3 585 -5 33 -11 89 -14 125 -3 36 -8 76 -10 90 -2
14 -7 48 -11 75 -11 81 -55 293 -81 390 -13 50 -26 98 -29 108 -48 195 -178
531 -310 802 -72 148 -201 384 -254 465 -9 14 -20 33 -26 42 -151 260 -517
742 -772 1017 l-69 74 81 78 c44 42 109 105 145 139 36 34 145 139 244 234 98
94 208 200 245 234 36 35 149 143 250 240 101 98 206 197 231 222 26 25 134
128 240 230 106 102 223 214 260 250 l68 65 -18 30 c-9 17 -74 129 -144 250
-70 121 -132 229 -139 240 -243 388 -475 719 -791 1125 -28 36 -55 70 -61 76
-5 7 -26 31 -45 55 -45 57 -240 291 -254 305 -6 6 -31 35 -56 65 -25 29 -54
62 -65 74 -11 11 -40 43 -64 70 -144 162 -436 462 -618 635 -156 149 -231 217
-443 400 -14 12 -42 36 -64 53 -21 18 -66 55 -100 83 -33 28 -92 74 -130 103
-37 28 -74 57 -81 64 -6 7 -38 30 -69 52 -31 22 -93 67 -139 101 -439 325
-1040 664 -1541 869 -216 88 -632 231 -731 251 -5 1 -73 18 -150 38 -77 19
-151 37 -165 40 -14 3 -50 10 -80 16 -30 6 -66 13 -80 15 -14 2 -52 9 -85 14
-33 6 -76 12 -95 15 -19 2 -51 7 -70 10 -44 7 -89 13 -165 21 -33 3 -78 8
-100 10 -120 13 -667 28 -678 19z m488 -1138 c55 -4 114 -9 130 -11 117 -14
150 -18 230 -31 147 -23 145 -22 361 -69 34 -7 94 -23 134 -35 40 -12 80 -23
89 -25 74 -15 392 -130 576 -207 168 -71 533 -258 700 -359 245 -146 616 -404
798 -553 23 -19 85 -70 137 -113 271 -222 650 -580 900 -849 109 -117 223
-245 296 -329 38 -44 71 -82 74 -85 3 -3 35 -41 70 -85 36 -44 68 -82 71 -85
28 -26 322 -409 451 -589 53 -75 101 -141 105 -146 24 -31 133 -195 133 -201
0 -4 -24 -30 -54 -58 -29 -28 -138 -132 -241 -231 -103 -99 -217 -209 -254
-244 -36 -35 -93 -89 -126 -122 l-60 -58 -62 57 c-34 32 -146 139 -250 239
-103 99 -210 202 -238 228 -55 53 -393 377 -574 551 -105 101 -220 210 -386
369 -33 31 -145 139 -250 240 -104 100 -219 210 -255 244 -36 34 -84 81 -107
103 l-41 41 -84 -81 c-46 -44 -112 -108 -148 -142 -36 -34 -155 -148 -264
-253 -110 -106 -216 -208 -236 -227 -37 -35 -397 -380 -475 -455 -76 -73 -447
-428 -555 -531 -58 -56 -132 -127 -165 -159 -33 -31 -136 -130 -229 -219 -92
-88 -169 -161 -171 -161 -2 0 -167 142 -209 180 -288 261 -924 762 -1251 985
-44 30 -82 57 -85 60 -5 6 -194 131 -305 202 -140 89 -389 237 -530 313 -84
46 -421 215 -428 215 -3 0 -38 16 -79 34 -273 128 -761 291 -1018 340 -14 2
-61 12 -105 20 -44 8 -93 17 -110 20 -229 34 -303 41 -480 45 l-70 2 181 177
c166 163 309 297 393 368 18 16 45 40 60 54 43 41 257 219 381 316 460 363
1021 709 1450 894 41 18 94 41 117 51 23 11 45 19 48 19 4 0 21 7 38 15 127
58 589 204 731 231 11 2 53 10 91 18 133 29 259 49 368 60 37 4 76 9 86 11 10
2 72 6 137 10 65 4 120 8 121 9 5 4 351 -2 438 -8z m-4390 -3370 c28 -4 61 -9
75 -11 14 -2 41 -7 60 -10 19 -3 46 -8 60 -10 14 -3 34 -7 45 -9 328 -64 808
-251 1205 -468 128 -70 240 -134 310 -178 8 -5 35 -21 60 -36 364 -218 1056
-731 1436 -1064 22 -19 53 -46 70 -60 62 -53 261 -227 309 -271 27 -25 82 -75
120 -110 92 -84 75 -67 226 -209 383 -359 964 -944 1325 -1336 161 -174 221
-238 229 -248 84 -89 597 -666 776 -871 116 -134 145 -165 155 -165 3 0 54 47
113 104 58 57 122 119 143 138 31 29 137 130 473 453 74 71 404 387 484 464
31 29 146 139 255 245 110 105 250 239 310 297 61 58 149 143 196 187 l85 82
55 -58 c30 -31 66 -71 80 -87 83 -97 214 -262 268 -335 35 -47 68 -92 75 -100
28 -35 217 -325 217 -332 0 -3 23 -43 51 -89 93 -154 218 -414 292 -609 200
-525 252 -1044 155 -1525 -61 -300 -197 -626 -377 -904 -164 -250 -513 -507
-831 -610 -167 -54 -290 -70 -495 -66 -282 5 -532 60 -865 190 -185 72 -499
226 -648 316 -35 22 -66 39 -68 39 -11 0 -482 302 -519 333 -5 4 -62 45 -125
90 -193 137 -548 409 -615 471 -11 10 -36 30 -55 44 -19 15 -37 29 -40 32 -3
3 -48 41 -100 85 -118 99 -300 255 -320 275 -8 8 -33 30 -55 49 -22 19 -80 70
-129 115 -49 44 -98 89 -109 98 -74 65 -176 162 -174 167 2 7 -81 87 -489 476
-207 197 -661 649 -814 811 -112 118 -323 342 -387 410 -102 110 -226 245
-274 298 -30 33 -65 71 -77 85 -84 92 -195 214 -241 266 -30 33 -87 96 -126
140 -40 44 -110 123 -156 175 -46 52 -88 100 -94 106 -5 6 -55 61 -109 122
-55 62 -103 112 -107 112 -7 0 -50 -42 -572 -553 -192 -188 -400 -391 -462
-452 -62 -60 -266 -259 -452 -441 -364 -357 -526 -515 -566 -552 l-25 -23
-130 133 c-157 161 -203 209 -250 267 -21 25 -51 61 -67 80 -276 324 -541 756
-683 1116 -34 87 -97 270 -107 315 -9 38 -47 207 -51 224 -2 11 -8 55 -14 99
-74 534 39 1034 348 1547 78 130 212 317 238 333 7 4 19 13 26 20 22 20 98 71
178 119 236 143 521 240 775 264 33 4 62 8 64 10 6 5 379 -3 436 -10z m3458
-6398 c56 -51 108 -100 117 -108 78 -72 209 -189 275 -246 44 -38 82 -71 85
-74 5 -6 171 -148 265 -227 320 -268 710 -568 985 -758 115 -80 233 -159 245
-165 6 -3 50 -31 98 -63 415 -272 916 -526 1335 -676 298 -106 639 -185 892
-207 36 -3 74 -7 85 -9 11 -2 22 -4 25 -4 6 -1 -144 -144 -320 -306 -335 -308
-798 -663 -1171 -897 -86 -54 -247 -149 -373 -220 -456 -255 -1093 -485 -1556
-562 -194 -32 -236 -38 -425 -53 -117 -10 -532 -10 -660 0 -108 8 -127 10
-280 32 -826 120 -1673 496 -2493 1107 -126 94 -355 275 -427 339 -53 46 -228
202 -280 249 -85 76 -516 510 -595 599 -41 46 -80 88 -86 95 -5 6 -34 38 -63
71 -29 33 -67 75 -83 94 -209 237 -558 687 -775 1001 -141 204 -134 179 -65
247 33 32 202 198 376 368 175 171 321 310 326 310 5 0 91 -79 191 -175 100
-96 203 -195 229 -220 26 -25 129 -124 229 -220 101 -96 210 -201 243 -232 61
-58 105 -99 493 -472 120 -116 235 -226 255 -244 41 -39 380 -365 451 -434
l48 -47 63 61 c156 150 298 286 468 448 235 225 240 230 475 455 109 105 217
208 240 230 23 22 130 126 239 230 109 105 227 217 261 250 35 33 140 134 235
225 231 222 314 300 319 300 2 0 49 -42 104 -92z"/>
</g>
</svg>
